<mxfile host="app.diagrams.net" agent="Mozilla/5.0 (Macintosh; Intel Mac OS X 10_15_7) AppleWebKit/537.36 (KHTML, like Gecko) Chrome/134.0.0.0 Safari/537.36" version="26.1.0">
  <diagram name="Page-1" id="JYd7VuVYJrpqhSNy5vfS">
    <mxGraphModel dx="955" dy="1710" grid="1" gridSize="10" guides="1" tooltips="1" connect="1" arrows="1" fold="1" page="1" pageScale="1" pageWidth="827" pageHeight="1169" math="0" shadow="0">
      <root>
        <mxCell id="0" />
        <mxCell id="1" parent="0" />
        <mxCell id="CYZHYOJTytUa2xAVi5BT-55" style="edgeStyle=orthogonalEdgeStyle;rounded=0;orthogonalLoop=1;jettySize=auto;html=1;entryX=0;entryY=0.5;entryDx=0;entryDy=0;" edge="1" parent="1" source="CYZHYOJTytUa2xAVi5BT-1" target="CYZHYOJTytUa2xAVi5BT-49">
          <mxGeometry relative="1" as="geometry">
            <Array as="points">
              <mxPoint x="51" y="65" />
              <mxPoint x="51" y="278" />
            </Array>
          </mxGeometry>
        </mxCell>
        <mxCell id="CYZHYOJTytUa2xAVi5BT-1" value="&lt;span data-sheets-root=&quot;1&quot; style=&quot;font-size:10pt;font-family:Arial;font-style:normal;&quot;&gt;010&lt;/span&gt;" style="rounded=0;whiteSpace=wrap;html=1;" vertex="1" parent="1">
          <mxGeometry x="100" y="50" width="80" height="30" as="geometry" />
        </mxCell>
        <mxCell id="CYZHYOJTytUa2xAVi5BT-2" value="&lt;span data-sheets-root=&quot;1&quot; style=&quot;font-size:10pt;font-family:Arial;font-style:normal;&quot;&gt;000&lt;/span&gt;" style="rounded=0;whiteSpace=wrap;html=1;" vertex="1" parent="1">
          <mxGeometry x="180" y="50" width="80" height="30" as="geometry" />
        </mxCell>
        <mxCell id="CYZHYOJTytUa2xAVi5BT-66" style="edgeStyle=orthogonalEdgeStyle;rounded=0;orthogonalLoop=1;jettySize=auto;html=1;entryX=0;entryY=0.5;entryDx=0;entryDy=0;" edge="1" parent="1" source="CYZHYOJTytUa2xAVi5BT-3" target="CYZHYOJTytUa2xAVi5BT-65">
          <mxGeometry relative="1" as="geometry">
            <Array as="points">
              <mxPoint x="40" y="95" />
              <mxPoint x="40" y="210" />
            </Array>
          </mxGeometry>
        </mxCell>
        <mxCell id="CYZHYOJTytUa2xAVi5BT-3" value="&lt;font face=&quot;Arial&quot;&gt;&lt;span style=&quot;font-size: 13.3333px; font-weight: 400;&quot;&gt;111&lt;/span&gt;&lt;/font&gt;" style="rounded=0;whiteSpace=wrap;html=1;fontStyle=1" vertex="1" parent="1">
          <mxGeometry x="100" y="80" width="80" height="30" as="geometry" />
        </mxCell>
        <mxCell id="CYZHYOJTytUa2xAVi5BT-4" value="&lt;span style=&quot;font-family: Arial; font-size: 13.3333px; font-weight: 400;&quot;&gt;100&lt;/span&gt;" style="rounded=0;whiteSpace=wrap;html=1;fontStyle=1" vertex="1" parent="1">
          <mxGeometry x="180" y="80" width="80" height="30" as="geometry" />
        </mxCell>
        <mxCell id="CYZHYOJTytUa2xAVi5BT-67" style="edgeStyle=orthogonalEdgeStyle;rounded=0;orthogonalLoop=1;jettySize=auto;html=1;entryX=0.357;entryY=0.997;entryDx=0;entryDy=0;entryPerimeter=0;" edge="1" parent="1" source="CYZHYOJTytUa2xAVi5BT-5" target="CYZHYOJTytUa2xAVi5BT-48">
          <mxGeometry relative="1" as="geometry">
            <mxPoint x="30" y="240" as="targetPoint" />
            <Array as="points">
              <mxPoint x="30" y="125" />
              <mxPoint x="30" y="239" />
            </Array>
          </mxGeometry>
        </mxCell>
        <mxCell id="CYZHYOJTytUa2xAVi5BT-5" value="&lt;span data-sheets-root=&quot;1&quot; style=&quot;font-size:10pt;font-family:Arial;font-style:normal;&quot;&gt;001&lt;/span&gt;" style="rounded=0;whiteSpace=wrap;html=1;" vertex="1" parent="1">
          <mxGeometry x="100" y="110" width="80" height="30" as="geometry" />
        </mxCell>
        <mxCell id="CYZHYOJTytUa2xAVi5BT-79" style="edgeStyle=orthogonalEdgeStyle;rounded=0;orthogonalLoop=1;jettySize=auto;html=1;" edge="1" parent="1" source="CYZHYOJTytUa2xAVi5BT-6" target="CYZHYOJTytUa2xAVi5BT-78">
          <mxGeometry relative="1" as="geometry" />
        </mxCell>
        <mxCell id="CYZHYOJTytUa2xAVi5BT-6" value="&lt;span data-sheets-root=&quot;1&quot; style=&quot;font-size:10pt;font-family:Arial;font-style:normal;&quot;&gt;000&lt;/span&gt;" style="rounded=0;whiteSpace=wrap;html=1;" vertex="1" parent="1">
          <mxGeometry x="180" y="110" width="80" height="30" as="geometry" />
        </mxCell>
        <mxCell id="CYZHYOJTytUa2xAVi5BT-9" value="&lt;b&gt;Virtual Addresses&lt;/b&gt;" style="text;html=1;align=center;verticalAlign=middle;resizable=0;points=[];autosize=1;strokeColor=none;fillColor=none;" vertex="1" parent="1">
          <mxGeometry x="160" y="-20" width="120" height="30" as="geometry" />
        </mxCell>
        <mxCell id="CYZHYOJTytUa2xAVi5BT-10" value="&lt;span style=&quot;forced-color-adjust: none; color: rgb(0, 0, 0); font-family: Helvetica; font-size: 12px; font-style: normal; font-variant-ligatures: normal; font-variant-caps: normal; letter-spacing: normal; orphans: 2; text-align: center; text-indent: 0px; text-transform: none; widows: 2; word-spacing: 0px; -webkit-text-stroke-width: 0px; white-space: nowrap; background-color: rgb(251, 251, 251); text-decoration-thickness: initial; text-decoration-style: initial; text-decoration-color: initial;&quot;&gt;Root Page&lt;/span&gt;" style="text;whiteSpace=wrap;html=1;" vertex="1" parent="1">
          <mxGeometry x="117" y="30" width="46" height="20" as="geometry" />
        </mxCell>
        <mxCell id="CYZHYOJTytUa2xAVi5BT-11" value="&lt;span style=&quot;color: rgb(0, 0, 0); font-family: Helvetica; font-size: 12px; font-style: normal; font-variant-ligatures: normal; font-variant-caps: normal; font-weight: 400; letter-spacing: normal; orphans: 2; text-align: center; text-indent: 0px; text-transform: none; widows: 2; word-spacing: 0px; -webkit-text-stroke-width: 0px; white-space: nowrap; background-color: rgb(251, 251, 251); text-decoration-thickness: initial; text-decoration-style: initial; text-decoration-color: initial; float: none; display: inline !important;&quot;&gt;Page&lt;/span&gt;" style="text;whiteSpace=wrap;html=1;" vertex="1" parent="1">
          <mxGeometry x="200" y="30" width="30" height="20" as="geometry" />
        </mxCell>
        <mxCell id="CYZHYOJTytUa2xAVi5BT-28" value="&lt;b&gt;Physical Addresses&lt;/b&gt;" style="text;html=1;align=center;verticalAlign=middle;resizable=0;points=[];autosize=1;strokeColor=none;fillColor=none;" vertex="1" parent="1">
          <mxGeometry x="450" y="-20" width="140" height="30" as="geometry" />
        </mxCell>
        <mxCell id="CYZHYOJTytUa2xAVi5BT-58" style="edgeStyle=orthogonalEdgeStyle;rounded=0;orthogonalLoop=1;jettySize=auto;html=1;endArrow=none;startFill=0;" edge="1" parent="1" source="CYZHYOJTytUa2xAVi5BT-31" target="CYZHYOJTytUa2xAVi5BT-46">
          <mxGeometry relative="1" as="geometry">
            <Array as="points">
              <mxPoint x="380" y="65" />
              <mxPoint x="380" y="20" />
              <mxPoint x="565" y="20" />
            </Array>
          </mxGeometry>
        </mxCell>
        <mxCell id="CYZHYOJTytUa2xAVi5BT-31" value="&lt;span data-sheets-root=&quot;1&quot; style=&quot;font-size:10pt;font-family:Arial;font-style:normal;&quot;&gt;11&lt;/span&gt;" style="rounded=0;whiteSpace=wrap;html=1;" vertex="1" parent="1">
          <mxGeometry x="260" y="50" width="80" height="30" as="geometry" />
        </mxCell>
        <mxCell id="CYZHYOJTytUa2xAVi5BT-32" value="&lt;span style=&quot;font-family: Arial; font-size: 13.3333px; font-weight: 400;&quot;&gt;10&lt;/span&gt;" style="rounded=0;whiteSpace=wrap;html=1;fontStyle=1" vertex="1" parent="1">
          <mxGeometry x="260" y="80" width="80" height="30" as="geometry" />
        </mxCell>
        <mxCell id="CYZHYOJTytUa2xAVi5BT-33" value="&lt;span data-sheets-root=&quot;1&quot; style=&quot;font-size:10pt;font-family:Arial;font-style:normal;&quot;&gt;10&lt;/span&gt;" style="rounded=0;whiteSpace=wrap;html=1;" vertex="1" parent="1">
          <mxGeometry x="260" y="110" width="80" height="30" as="geometry" />
        </mxCell>
        <mxCell id="CYZHYOJTytUa2xAVi5BT-34" value="&lt;span style=&quot;color: rgb(0, 0, 0); font-family: Helvetica; font-size: 12px; font-style: normal; font-variant-ligatures: normal; font-variant-caps: normal; font-weight: 400; letter-spacing: normal; orphans: 2; text-align: center; text-indent: 0px; text-transform: none; widows: 2; word-spacing: 0px; -webkit-text-stroke-width: 0px; white-space: nowrap; background-color: rgb(251, 251, 251); text-decoration-thickness: initial; text-decoration-style: initial; text-decoration-color: initial; float: none; display: inline !important;&quot;&gt;Offset&lt;/span&gt;" style="text;whiteSpace=wrap;html=1;" vertex="1" parent="1">
          <mxGeometry x="280" y="30" width="30" height="20" as="geometry" />
        </mxCell>
        <mxCell id="CYZHYOJTytUa2xAVi5BT-36" value="&lt;p data-pm-slice=&quot;1 1 [&amp;quot;list&amp;quot;,{&amp;quot;spread&amp;quot;:false,&amp;quot;start&amp;quot;:2131,&amp;quot;end&amp;quot;:2402},&amp;quot;regular_list_item&amp;quot;,{&amp;quot;start&amp;quot;:2328,&amp;quot;end&amp;quot;:2402}]&quot;&gt;000101&lt;/p&gt;" style="rounded=0;whiteSpace=wrap;html=1;" vertex="1" parent="1">
          <mxGeometry x="450" y="50" width="80" height="30" as="geometry" />
        </mxCell>
        <mxCell id="CYZHYOJTytUa2xAVi5BT-38" value="&lt;span style=&quot;font-weight: normal;&quot;&gt;000101&lt;/span&gt;" style="rounded=0;whiteSpace=wrap;html=1;fontStyle=1" vertex="1" parent="1">
          <mxGeometry x="450" y="80" width="80" height="30" as="geometry" />
        </mxCell>
        <mxCell id="CYZHYOJTytUa2xAVi5BT-40" value="&lt;p data-pm-slice=&quot;1 1 [&amp;quot;list&amp;quot;,{&amp;quot;spread&amp;quot;:false,&amp;quot;start&amp;quot;:2740,&amp;quot;end&amp;quot;:3011},&amp;quot;regular_list_item&amp;quot;,{&amp;quot;start&amp;quot;:2937,&amp;quot;end&amp;quot;:3011}]&quot;&gt;000111&lt;/p&gt;" style="rounded=0;whiteSpace=wrap;html=1;" vertex="1" parent="1">
          <mxGeometry x="450" y="110" width="80" height="30" as="geometry" />
        </mxCell>
        <mxCell id="CYZHYOJTytUa2xAVi5BT-42" value="&lt;span style=&quot;color: rgb(0, 0, 0); font-family: Helvetica; font-size: 12px; font-style: normal; font-variant-ligatures: normal; font-variant-caps: normal; font-weight: 400; letter-spacing: normal; orphans: 2; text-align: center; text-indent: 0px; text-transform: none; widows: 2; word-spacing: 0px; -webkit-text-stroke-width: 0px; white-space: nowrap; background-color: rgb(251, 251, 251); text-decoration-thickness: initial; text-decoration-style: initial; text-decoration-color: initial; float: none; display: inline !important;&quot;&gt;Frame#&lt;/span&gt;" style="text;whiteSpace=wrap;html=1;" vertex="1" parent="1">
          <mxGeometry x="470" y="30" width="30" height="20" as="geometry" />
        </mxCell>
        <mxCell id="CYZHYOJTytUa2xAVi5BT-61" style="edgeStyle=orthogonalEdgeStyle;rounded=0;orthogonalLoop=1;jettySize=auto;html=1;exitX=1;exitY=0.5;exitDx=0;exitDy=0;" edge="1" parent="1" source="CYZHYOJTytUa2xAVi5BT-43">
          <mxGeometry relative="1" as="geometry">
            <mxPoint x="650" y="260" as="targetPoint" />
            <Array as="points">
              <mxPoint x="630" y="65" />
              <mxPoint x="630" y="260" />
            </Array>
          </mxGeometry>
        </mxCell>
        <mxCell id="CYZHYOJTytUa2xAVi5BT-43" value="&lt;span data-sheets-root=&quot;1&quot; style=&quot;font-size:10pt;font-family:Arial;font-style:normal;&quot;&gt;10&lt;/span&gt;" style="rounded=0;whiteSpace=wrap;html=1;" vertex="1" parent="1">
          <mxGeometry x="530" y="50" width="80" height="30" as="geometry" />
        </mxCell>
        <mxCell id="CYZHYOJTytUa2xAVi5BT-76" style="edgeStyle=orthogonalEdgeStyle;rounded=0;orthogonalLoop=1;jettySize=auto;html=1;entryX=0;entryY=0.5;entryDx=0;entryDy=0;" edge="1" parent="1" source="CYZHYOJTytUa2xAVi5BT-44" target="CYZHYOJTytUa2xAVi5BT-75">
          <mxGeometry relative="1" as="geometry">
            <mxPoint x="610" y="360" as="targetPoint" />
            <Array as="points">
              <mxPoint x="620" y="95" />
              <mxPoint x="620" y="304" />
            </Array>
          </mxGeometry>
        </mxCell>
        <mxCell id="CYZHYOJTytUa2xAVi5BT-44" value="&lt;span style=&quot;font-family: Arial; font-size: 13.3333px; font-weight: 400;&quot;&gt;11&lt;/span&gt;" style="rounded=0;whiteSpace=wrap;html=1;fontStyle=1" vertex="1" parent="1">
          <mxGeometry x="530" y="80" width="80" height="30" as="geometry" />
        </mxCell>
        <mxCell id="CYZHYOJTytUa2xAVi5BT-77" style="edgeStyle=orthogonalEdgeStyle;rounded=0;orthogonalLoop=1;jettySize=auto;html=1;" edge="1" parent="1" source="CYZHYOJTytUa2xAVi5BT-45" target="CYZHYOJTytUa2xAVi5BT-75">
          <mxGeometry relative="1" as="geometry">
            <Array as="points">
              <mxPoint x="620" y="125" />
              <mxPoint x="620" y="304" />
            </Array>
          </mxGeometry>
        </mxCell>
        <mxCell id="CYZHYOJTytUa2xAVi5BT-45" value="&lt;span data-sheets-root=&quot;1&quot; style=&quot;font-size:10pt;font-family:Arial;font-style:normal;&quot;&gt;10&lt;/span&gt;" style="rounded=0;whiteSpace=wrap;html=1;" vertex="1" parent="1">
          <mxGeometry x="530" y="110" width="80" height="30" as="geometry" />
        </mxCell>
        <mxCell id="CYZHYOJTytUa2xAVi5BT-46" value="&lt;span style=&quot;color: rgb(0, 0, 0); font-family: Helvetica; font-size: 12px; font-style: normal; font-variant-ligatures: normal; font-variant-caps: normal; font-weight: 400; letter-spacing: normal; orphans: 2; text-align: center; text-indent: 0px; text-transform: none; widows: 2; word-spacing: 0px; -webkit-text-stroke-width: 0px; white-space: nowrap; background-color: rgb(251, 251, 251); text-decoration-thickness: initial; text-decoration-style: initial; text-decoration-color: initial; float: none; display: inline !important;&quot;&gt;Offset&lt;/span&gt;" style="text;whiteSpace=wrap;html=1;" vertex="1" parent="1">
          <mxGeometry x="550" y="30" width="30" height="20" as="geometry" />
        </mxCell>
        <mxCell id="CYZHYOJTytUa2xAVi5BT-48" value="" style="rounded=0;whiteSpace=wrap;html=1;rotation=90;" vertex="1" parent="1">
          <mxGeometry x="48.75" y="210" width="145" height="100" as="geometry" />
        </mxCell>
        <mxCell id="CYZHYOJTytUa2xAVi5BT-56" style="edgeStyle=orthogonalEdgeStyle;rounded=0;orthogonalLoop=1;jettySize=auto;html=1;" edge="1" parent="1" source="CYZHYOJTytUa2xAVi5BT-49" target="CYZHYOJTytUa2xAVi5BT-68">
          <mxGeometry relative="1" as="geometry">
            <Array as="points">
              <mxPoint x="210" y="280" />
              <mxPoint x="210" y="210" />
            </Array>
          </mxGeometry>
        </mxCell>
        <mxCell id="CYZHYOJTytUa2xAVi5BT-49" value="001(1) -&amp;gt; Page 1" style="rounded=0;whiteSpace=wrap;html=1;" vertex="1" parent="1">
          <mxGeometry x="71.88" y="267.5" width="98.75" height="20" as="geometry" />
        </mxCell>
        <mxCell id="CYZHYOJTytUa2xAVi5BT-50" value="" style="rounded=0;whiteSpace=wrap;html=1;rotation=90;" vertex="1" parent="1">
          <mxGeometry x="246.25" y="210" width="145" height="100" as="geometry" />
        </mxCell>
        <mxCell id="CYZHYOJTytUa2xAVi5BT-57" style="edgeStyle=orthogonalEdgeStyle;rounded=0;orthogonalLoop=1;jettySize=auto;html=1;entryX=0;entryY=0.5;entryDx=0;entryDy=0;" edge="1" parent="1" source="CYZHYOJTytUa2xAVi5BT-51" target="CYZHYOJTytUa2xAVi5BT-36">
          <mxGeometry relative="1" as="geometry">
            <mxPoint x="440" y="65" as="targetPoint" />
          </mxGeometry>
        </mxCell>
        <mxCell id="CYZHYOJTytUa2xAVi5BT-51" value="100(4) -&amp;gt; Frame 2" style="rounded=0;whiteSpace=wrap;html=1;" vertex="1" parent="1">
          <mxGeometry x="268.75" y="227.5" width="100" height="20" as="geometry" />
        </mxCell>
        <mxCell id="CYZHYOJTytUa2xAVi5BT-52" value="" style="shape=cylinder3;whiteSpace=wrap;html=1;boundedLbl=1;backgroundOutline=1;size=15;" vertex="1" parent="1">
          <mxGeometry x="651.5" y="166.87" width="88.5" height="183.13" as="geometry" />
        </mxCell>
        <mxCell id="CYZHYOJTytUa2xAVi5BT-53" value="&lt;b&gt;RAM&lt;/b&gt;" style="text;html=1;align=center;verticalAlign=middle;resizable=0;points=[];autosize=1;strokeColor=none;fillColor=none;" vertex="1" parent="1">
          <mxGeometry x="670" y="350" width="50" height="30" as="geometry" />
        </mxCell>
        <mxCell id="CYZHYOJTytUa2xAVi5BT-54" value="&lt;b&gt;Paging Mechanism&lt;/b&gt;" style="text;html=1;align=center;verticalAlign=middle;resizable=0;points=[];autosize=1;strokeColor=none;fillColor=none;" vertex="1" parent="1">
          <mxGeometry x="150" y="360" width="130" height="30" as="geometry" />
        </mxCell>
        <mxCell id="CYZHYOJTytUa2xAVi5BT-62" value="&lt;p data-pm-slice=&quot;1 1 [&amp;quot;list&amp;quot;,{&amp;quot;spread&amp;quot;:false,&amp;quot;start&amp;quot;:2131,&amp;quot;end&amp;quot;:2402},&amp;quot;regular_list_item&amp;quot;,{&amp;quot;start&amp;quot;:2328,&amp;quot;end&amp;quot;:2402}]&quot;&gt;&lt;span&gt;0b00001010&lt;/span&gt;&lt;/p&gt;" style="rounded=0;whiteSpace=wrap;html=1;fontStyle=0" vertex="1" parent="1">
          <mxGeometry x="651.5" y="250" width="90" height="20" as="geometry" />
        </mxCell>
        <mxCell id="CYZHYOJTytUa2xAVi5BT-70" style="edgeStyle=orthogonalEdgeStyle;rounded=0;orthogonalLoop=1;jettySize=auto;html=1;entryX=0;entryY=0.5;entryDx=0;entryDy=0;" edge="1" parent="1" source="CYZHYOJTytUa2xAVi5BT-64" target="CYZHYOJTytUa2xAVi5BT-69">
          <mxGeometry relative="1" as="geometry">
            <Array as="points">
              <mxPoint x="190" y="238" />
              <mxPoint x="190" y="290" />
            </Array>
          </mxGeometry>
        </mxCell>
        <mxCell id="CYZHYOJTytUa2xAVi5BT-64" value="011(7) -&amp;gt; Page 3" style="rounded=0;whiteSpace=wrap;html=1;" vertex="1" parent="1">
          <mxGeometry x="71.88" y="227.5" width="98.75" height="20" as="geometry" />
        </mxCell>
        <mxCell id="CYZHYOJTytUa2xAVi5BT-71" style="edgeStyle=orthogonalEdgeStyle;rounded=0;orthogonalLoop=1;jettySize=auto;html=1;exitX=1;exitY=0.5;exitDx=0;exitDy=0;" edge="1" parent="1" source="CYZHYOJTytUa2xAVi5BT-65">
          <mxGeometry relative="1" as="geometry">
            <mxPoint x="270" y="240" as="targetPoint" />
            <Array as="points">
              <mxPoint x="200" y="210" />
              <mxPoint x="200" y="240" />
            </Array>
          </mxGeometry>
        </mxCell>
        <mxCell id="CYZHYOJTytUa2xAVi5BT-65" value="010(2) -&amp;gt; Page 2" style="rounded=0;whiteSpace=wrap;html=1;" vertex="1" parent="1">
          <mxGeometry x="71.88" y="200" width="98.75" height="20" as="geometry" />
        </mxCell>
        <mxCell id="CYZHYOJTytUa2xAVi5BT-72" style="edgeStyle=orthogonalEdgeStyle;rounded=0;orthogonalLoop=1;jettySize=auto;html=1;entryX=0;entryY=0.5;entryDx=0;entryDy=0;" edge="1" parent="1" source="CYZHYOJTytUa2xAVi5BT-68" target="CYZHYOJTytUa2xAVi5BT-38">
          <mxGeometry relative="1" as="geometry">
            <Array as="points">
              <mxPoint x="420" y="210" />
              <mxPoint x="420" y="95" />
            </Array>
          </mxGeometry>
        </mxCell>
        <mxCell id="CYZHYOJTytUa2xAVi5BT-68" value="000(0) -&amp;gt; Frame 5" style="rounded=0;whiteSpace=wrap;html=1;" vertex="1" parent="1">
          <mxGeometry x="268.75" y="200" width="100" height="20" as="geometry" />
        </mxCell>
        <mxCell id="CYZHYOJTytUa2xAVi5BT-73" style="edgeStyle=orthogonalEdgeStyle;rounded=0;orthogonalLoop=1;jettySize=auto;html=1;entryX=0;entryY=0.5;entryDx=0;entryDy=0;" edge="1" parent="1" source="CYZHYOJTytUa2xAVi5BT-69" target="CYZHYOJTytUa2xAVi5BT-40">
          <mxGeometry relative="1" as="geometry">
            <Array as="points">
              <mxPoint x="400" y="290" />
              <mxPoint x="400" y="125" />
            </Array>
          </mxGeometry>
        </mxCell>
        <mxCell id="CYZHYOJTytUa2xAVi5BT-69" value="000(0) -&amp;gt; Frame 5" style="rounded=0;whiteSpace=wrap;html=1;" vertex="1" parent="1">
          <mxGeometry x="268.75" y="280" width="100" height="20" as="geometry" />
        </mxCell>
        <mxCell id="CYZHYOJTytUa2xAVi5BT-75" value="&lt;p data-pm-slice=&quot;1 1 [&amp;quot;list&amp;quot;,{&amp;quot;spread&amp;quot;:false,&amp;quot;start&amp;quot;:2740,&amp;quot;end&amp;quot;:3011},&amp;quot;regular_list_item&amp;quot;,{&amp;quot;start&amp;quot;:2937,&amp;quot;end&amp;quot;:3011}]&quot;&gt;0b00010111&amp;nbsp;&lt;/p&gt;&lt;p data-pm-slice=&quot;1 1 [&amp;quot;list&amp;quot;,{&amp;quot;spread&amp;quot;:false,&amp;quot;start&amp;quot;:2740,&amp;quot;end&amp;quot;:3011},&amp;quot;regular_list_item&amp;quot;,{&amp;quot;start&amp;quot;:2937,&amp;quot;end&amp;quot;:3011}]&quot;&gt;0b00010110&lt;/p&gt;" style="rounded=0;whiteSpace=wrap;html=1;" vertex="1" parent="1">
          <mxGeometry x="651.5" y="280" width="90" height="47.5" as="geometry" />
        </mxCell>
        <mxCell id="CYZHYOJTytUa2xAVi5BT-80" style="edgeStyle=orthogonalEdgeStyle;rounded=0;orthogonalLoop=1;jettySize=auto;html=1;exitX=0.5;exitY=1;exitDx=0;exitDy=0;endArrow=none;startFill=0;" edge="1" parent="1" source="CYZHYOJTytUa2xAVi5BT-78">
          <mxGeometry relative="1" as="geometry">
            <mxPoint x="220" y="290" as="targetPoint" />
          </mxGeometry>
        </mxCell>
        <mxCell id="CYZHYOJTytUa2xAVi5BT-78" value="+" style="ellipse;whiteSpace=wrap;html=1;aspect=fixed;" vertex="1" parent="1">
          <mxGeometry x="208.43" y="166.87" width="23.13" height="23.13" as="geometry" />
        </mxCell>
      </root>
    </mxGraphModel>
  </diagram>
</mxfile>
